<svg width="36" height="36" viewBox="0 0 36 36" fill="none" xmlns="http://www.w3.org/2000/svg">
<path fill-rule="evenodd" clip-rule="evenodd" d="M0 1.41237C0 0.0983201 1.58891 -0.511771 2.40606 0.520696L6.7188 7.93569C7.26356 7.60718 7.80832 7.27867 8.39849 6.99709C11.1223 5.72997 14.3001 5.11987 18.0227 5.11987C21.2913 5.11987 24.6507 5.58917 27.6923 6.95015C28.2825 7.23173 28.7818 7.51331 29.3266 7.84182L33.5939 0.520696C34.4111 -0.511771 36 0.0983201 36 1.41237C36 8.35805 36 14.7875 36 21.217C36 26.9425 33.0038 31.8701 27.9647 34.1697C25.3316 35.3899 21.9723 36 17.9319 36C14.4817 36 10.8045 35.7184 7.62674 34.2167C2.49686 31.8701 0.0908 26.9425 0.0908 21.217C5.5403e-06 16.4301 0 17.5564 0 1.41237Z" fill="white"/>
<path d="M9 25C12.866 25 16 21.866 16 18C16 14.134 12.866 11 9 11C5.134 11 2 14.134 2 18C2 21.866 5.134 25 9 25Z" fill="url(#paint0_angular_3952_40095)"/>
<path d="M27 25C30.866 25 34 21.866 34 18C34 14.134 30.866 11 27 11C23.134 11 20 14.134 20 18C20 21.866 23.134 25 27 25Z" fill="url(#paint1_angular_3952_40095)"/>
<path fill-rule="evenodd" clip-rule="evenodd" d="M16.1387 29.5053C15.3215 28.8952 14.7314 27.8627 14.7314 26.6895C14.7314 24.4368 21.2232 24.4368 21.2232 26.6895C21.2232 27.8627 20.6784 28.8952 19.8159 29.5053C21.2232 31.054 24.0378 31.8518 27.0794 28.8952C27.4426 28.5198 28.0328 28.5667 28.3959 28.9421C28.7591 29.3176 28.7137 29.9746 28.3505 30.3031C24.3556 34.1983 19.8613 32.9781 18 30.2562C16.0933 32.9781 11.599 34.1983 7.64942 30.3031C7.28624 29.9277 7.24084 29.3176 7.60402 28.9421C7.96719 28.5667 8.55736 28.5198 8.92053 28.8952C11.8714 31.8518 14.7314 31.0071 16.1387 29.5053Z" fill="url(#paint2_radial_3952_40095)"/>
<defs>
<radialGradient id="paint0_angular_3952_40095" cx="0" cy="0" r="1" gradientUnits="userSpaceOnUse" gradientTransform="translate(9.0022 17.9832) rotate(90) scale(7 7.05983)">
<stop stop-color="#BCC3FF"/>
<stop offset="1" stop-color="#001AFF"/>
</radialGradient>
<radialGradient id="paint1_angular_3952_40095" cx="0" cy="0" r="1" gradientUnits="userSpaceOnUse" gradientTransform="translate(27.0022 17.9832) rotate(90) scale(7 7.05983)">
<stop stop-color="#BCC3FF"/>
<stop offset="1" stop-color="#001AFF"/>
</radialGradient>
<radialGradient id="paint2_radial_3952_40095" cx="0" cy="0" r="1" gradientUnits="userSpaceOnUse" gradientTransform="translate(26.6476 10.8573) rotate(111.556) scale(23.6245 37.6519)">
<stop stop-color="#BAC1FF"/>
<stop offset="1" stop-color="#0014C7"/>
</radialGradient>
</defs>
</svg>
